<?xml version="1.0" encoding="UTF-8"?>
<svg id="Layer_1" xmlns="http://www.w3.org/2000/svg" xmlns:xlink="http://www.w3.org/1999/xlink" viewBox="0 0 1417.32 1501.86">
  <defs>
    <style>
      .cls-1 {
        fill: url(#_무제_그라디언트_4);
        stroke: #fff;
        stroke-miterlimit: 10;
        stroke-width: 30px;
      }

      .cls-2 {
        fill: #fff;
      }

      .cls-3 {
        fill: #221f1d;
      }
    </style>
    <linearGradient id="_무제_그라디언트_4" data-name="무제 그라디언트 4" x1="708.66" y1="2010.85" x2="708.66" y2="726.72" gradientTransform="translate(0 2119.71) scale(1 -1)" gradientUnits="userSpaceOnUse">
      <stop offset="0" stop-color="#39564d"/>
      <stop offset="1" stop-color="#2c4434"/>
    </linearGradient>
  </defs>
  <circle class="cls-1" cx="708.66" cy="750.93" r="642.07"/>
  <g>
    <path class="cls-3" d="M507.72,619.06l-.05-.02h-34.45v.03c-92.15,1.4-166.43,76.52-166.43,169.01s73.37,166.71,164.74,168.98v.05s34.57,0,34.57,0c93.36,0,169.04-75.68,169.04-169.04s-74.81-168.15-167.42-169.02Z"/>
    <circle class="cls-2" cx="506.11" cy="788.08" r="141.49"/>
    <path class="cls-3" d="M791.66,797.08l-254.84,33.38c-22.13,2.9-42.61-12.84-45.51-34.97h0c-2.9-22.13,12.84-42.61,34.97-45.51l254.84-33.38c22.13-2.9,42.61,12.84,45.51,34.97h0c2.9,22.13-12.84,42.61-34.97,45.51Z"/>
    <path class="cls-3" d="M1110.53,750.93c0-112.28-89.75-203.59-201.42-206.13l-.09-.06h-61.14v.04c-112.41,1.7-203.01,93.34-203.01,206.15s89.5,203.34,200.95,206.12v.07s62.96,0,62.96,0l.09-.06c111.78-2.41,201.66-93.77,201.66-206.13Z"/>
    <circle class="cls-2" cx="904.34" cy="750.93" r="172.59" transform="translate(-266.11 859.4) rotate(-45)"/>
    <path class="cls-3" d="M1046.24,773.2l-110.94,14.53c-22.13,2.9-42.61-12.84-45.51-34.97h0c-2.9-22.13,12.84-42.61,34.97-45.51l110.94-14.53c22.13-2.9,42.61,12.84,45.51,34.97h0c2.9,22.13-12.84,42.61-34.97,45.51Z"/>
  </g>
</svg>